<?xml version="1.0" standalone="no"?>
<!DOCTYPE svg PUBLIC "-//W3C//DTD SVG 20010904//EN"
 "http://www.w3.org/TR/2001/REC-SVG-20010904/DTD/svg10.dtd">
<svg version="1.0" xmlns="http://www.w3.org/2000/svg"
 width="512" height="512" viewBox="100 100 824 824"
 preserveAspectRatio="xMidYMid meet">
<metadata>
Created by potrace 1.16, written by Peter Selinger 2001-2019
</metadata>
<g transform="translate(0.000000,1024.000000) scale(0.100000,-0.100000)"
fill="#000000" stroke="none">
<path d="M5046 8871 c-3 -4 -79 -11 -168 -14 -238 -10 -586 -67 -786 -129 -35
-11 -70 -17 -78 -14 -10 4 -12 2 -8 -6 5 -7 -1 -9 -19 -6 -15 3 -24 2 -22 -3
3 -4 -32 -20 -77 -35 -46 -15 -129 -46 -186 -70 -56 -24 -108 -42 -115 -40 -7
1 -9 1 -5 -1 5 -3 -37 -27 -93 -54 -55 -27 -105 -46 -111 -43 -6 4 -8 3 -5 -2
8 -13 -90 -67 -105 -58 -6 4 -8 3 -5 -3 3 -5 -17 -23 -46 -39 -29 -17 -78 -47
-109 -67 -38 -25 -58 -33 -61 -24 -3 7 -6 5 -6 -5 -1 -9 -14 -26 -30 -37 -33
-24 -45 -27 -35 -8 4 7 3 9 -2 4 -5 -5 -9 -13 -9 -17 0 -16 -67 -59 -83 -53
-12 3 -13 2 -5 -4 9 -6 2 -17 -23 -37 -20 -15 -42 -29 -49 -30 -8 -1 -18 -6
-22 -11 -4 -4 -1 -5 7 -1 8 4 2 -4 -14 -18 -17 -13 -34 -24 -40 -23 -6 1 -10
-3 -11 -10 0 -6 -22 -30 -50 -54 -27 -23 -78 -69 -111 -102 -34 -33 -67 -56
-73 -53 -6 4 -9 2 -6 -6 3 -7 -10 -28 -30 -46 -19 -19 -35 -28 -35 -22 0 6 -5
8 -10 5 -6 -4 -8 -11 -5 -16 8 -12 -105 -140 -117 -133 -5 3 -7 0 -6 -7 2 -7
-3 -13 -11 -14 -8 0 -15 -9 -17 -19 -1 -11 -13 -29 -25 -40 -21 -20 -22 -20
-8 -1 13 18 13 19 -3 6 -10 -7 -15 -17 -12 -23 7 -11 -15 -40 -26 -33 -5 3
-12 0 -16 -6 -4 -8 -3 -9 4 -5 20 12 13 -1 -30 -59 -30 -40 -44 -52 -50 -43
-6 9 -8 7 -5 -7 2 -12 -16 -49 -43 -90 -26 -38 -57 -87 -70 -108 -19 -33 -24
-36 -39 -25 -14 11 -14 11 -3 -4 11 -14 5 -32 -46 -127 -32 -61 -62 -108 -67
-103 -4 4 -5 2 -1 -5 7 -13 -33 -103 -47 -103 -4 0 -6 -4 -3 -9 7 -10 -52
-144 -65 -149 -5 -2 -7 -7 -5 -11 3 -4 -15 -60 -39 -126 -23 -65 -45 -112 -47
-104 -3 8 -4 5 -2 -7 2 -11 -12 -74 -31 -140 -19 -65 -35 -127 -35 -137 0 -11
-4 -15 -12 -11 -7 4 -8 3 -4 -4 4 -7 -4 -69 -18 -140 -35 -183 -35 -183 -52
-347 -11 -109 -14 -238 -12 -473 1 -178 6 -315 9 -305 5 13 8 8 8 -17 1 -19 4
-53 8 -74 4 -28 3 -37 -5 -32 -8 5 -10 2 -6 -8 3 -9 11 -16 16 -16 7 0 9 -17
5 -43 -2 -23 -2 -35 1 -27 5 15 42 -144 45 -197 1 -18 5 -33 10 -33 4 0 7 -8
7 -17 0 -16 -2 -16 -11 -3 -9 12 -10 12 -5 -3 3 -10 6 -21 6 -23 0 -3 4 -3 9
0 5 3 14 -14 20 -39 14 -55 14 -58 -2 -50 -6 4 -5 0 4 -7 9 -7 30 -56 47 -109
17 -52 42 -126 57 -164 14 -38 23 -75 20 -83 -2 -7 -1 -11 4 -8 9 6 35 -44 26
-52 -3 -3 -5 -1 -5 5 0 5 -7 10 -15 10 -23 0 -12 -21 12 -25 25 -4 66 -90 57
-119 -4 -13 -3 -14 3 -5 7 9 12 6 21 -13 7 -14 12 -32 12 -40 0 -8 4 -15 8
-15 13 0 43 -70 36 -82 -4 -6 -3 -8 2 -5 12 7 117 -170 109 -184 -4 -5 -1 -8
6 -7 6 2 14 -3 17 -11 3 -9 0 -11 -8 -6 -9 5 -11 4 -6 -4 4 -6 11 -9 16 -6 13
8 26 -25 26 -62 -1 -35 3 -40 20 -23 11 11 97 -102 97 -126 0 -7 5 -12 10 -11
5 1 12 -4 15 -12 3 -9 0 -11 -9 -6 -8 5 -11 4 -6 -1 5 -5 12 -9 15 -9 13 0 32
-16 32 -26 0 -6 -4 -8 -9 -5 -5 4 -7 -4 -3 -16 5 -20 6 -20 12 -4 5 16 11 13
39 -23 18 -22 31 -41 28 -41 -2 0 23 -30 57 -66 34 -37 61 -74 61 -83 0 -9 6
-16 13 -16 14 0 197 -186 194 -197 -1 -5 2 -7 6 -5 4 1 40 -26 79 -61 56 -50
70 -67 65 -84 -3 -15 -1 -19 7 -14 6 4 9 12 6 17 -4 5 -3 9 2 9 14 -1 88 -72
85 -82 -1 -5 2 -7 7 -4 9 6 61 -30 60 -42 -3 -18 2 -26 9 -16 10 17 158 -93
154 -115 -2 -13 -1 -13 6 -2 8 10 20 6 63 -23 41 -28 47 -35 27 -30 -19 4 -28
2 -28 -6 0 -7 7 -10 15 -7 8 4 17 2 20 -3 3 -5 12 -7 20 -3 19 7 126 -57 118
-70 -4 -6 0 -8 9 -5 19 8 131 -55 121 -67 -4 -4 -3 -5 4 -1 18 10 67 -15 51
-26 -9 -6 -7 -8 7 -7 36 3 46 -1 39 -13 -4 -6 -3 -8 4 -5 13 9 134 -48 124
-58 -4 -5 -2 -5 5 -1 6 3 58 -12 115 -35 57 -23 148 -56 203 -75 55 -19 83
-31 63 -28 -33 5 -38 4 -37 -12 0 -11 3 -14 6 -6 2 6 9 12 14 12 6 0 8 -4 5
-8 -6 -10 47 -10 55 1 3 4 45 -3 93 -16 48 -12 84 -26 80 -29 -3 -4 3 -4 13
-2 11 3 35 1 54 -4 19 -6 26 -11 17 -11 -10 -1 -18 -9 -18 -18 0 -14 2 -15 9
-4 6 10 13 11 29 2 26 -14 32 -14 32 -1 0 6 -7 10 -17 10 -9 0 -14 2 -11 5 8
9 88 -6 83 -15 -3 -5 3 -6 13 -3 10 2 60 -3 112 -11 52 -8 156 -20 230 -26
145 -12 631 -19 624 -9 -2 3 35 9 82 13 47 3 129 13 181 22 53 8 110 13 127
10 22 -4 25 -4 11 3 -16 6 -10 9 30 15 28 5 100 20 160 36 67 16 130 26 161
25 45 -3 51 -1 47 15 -3 12 3 19 22 24 14 4 31 4 37 0 6 -4 8 -3 5 3 -3 5 17
18 46 28 29 10 95 35 148 56 55 22 107 36 120 33 20 -4 21 -3 5 4 -18 8 -16
10 13 20 18 7 38 9 44 5 5 -3 7 -2 4 4 -3 5 24 24 61 42 37 18 107 55 155 82
48 27 93 47 99 43 6 -4 8 -3 5 3 -8 13 111 86 125 77 6 -4 8 -2 5 3 -8 13 40
46 54 38 5 -4 8 -2 7 4 -4 16 91 80 110 74 13 -4 14 -3 3 5 -15 11 2 27 19 17
6 -4 9 -2 8 3 -4 14 162 143 174 136 6 -4 8 -3 5 3 -9 14 160 166 174 157 7
-4 9 -3 6 3 -4 5 38 57 92 114 108 114 210 233 273 315 22 30 44 51 49 48 5
-3 8 -2 7 3 -4 15 32 73 44 70 7 -1 12 5 13 13 0 25 66 120 78 113 6 -3 7 -1
3 5 -9 15 23 64 37 55 6 -3 7 -1 3 6 -4 6 15 48 42 94 28 45 65 112 83 149 18
37 36 65 40 63 4 -3 6 1 5 8 -2 19 76 187 85 182 4 -3 5 5 2 17 -4 19 -3 21 7
8 10 -13 11 -13 6 2 -5 18 72 240 86 246 5 2 6 7 3 12 -3 4 6 43 20 86 14 43
28 93 31 111 4 19 11 30 17 26 6 -3 7 -1 3 5 -4 7 4 62 18 124 14 62 33 169
43 237 11 78 20 115 24 100 3 -13 6 10 5 51 0 41 3 176 8 300 15 382 -29 743
-132 1085 -20 66 -36 136 -36 155 1 19 -1 29 -4 21 -3 -8 -35 62 -72 155 -37
93 -77 188 -88 211 -24 47 -29 72 -7 33 9 -16 14 -19 15 -9 0 8 -12 25 -26 38
-17 14 -23 28 -19 39 3 9 3 13 -1 9 -4 -4 -20 16 -36 44 -25 43 -27 53 -16 67
12 15 11 16 -4 4 -14 -11 -17 -10 -24 10 -4 13 -6 24 -5 26 0 1 -8 11 -20 23
-12 12 -18 27 -14 37 3 9 3 13 -1 9 -10 -10 -65 75 -59 91 3 7 1 11 -4 8 -12
-8 -63 72 -55 86 4 6 3 8 -3 5 -14 -9 -46 40 -37 55 4 6 3 8 -4 5 -13 -9 -85
90 -76 105 4 6 3 8 -3 5 -14 -9 -47 29 -38 43 3 6 1 9 -7 8 -7 -2 -12 3 -10
10 1 8 -1 11 -6 8 -9 -5 -97 100 -97 118 -1 6 -6 10 -12 9 -15 -3 -73 64 -69
79 1 7 1 9 -2 5 -2 -5 -24 10 -48 34 -24 23 -40 47 -37 53 3 6 3 8 -2 4 -4 -4
-51 32 -104 80 -53 48 -117 105 -143 126 -26 21 -45 43 -41 49 3 6 1 7 -6 3
-13 -8 -66 30 -66 47 0 7 -9 12 -20 12 -11 0 -19 6 -17 13 1 8 -1 11 -5 9 -9
-6 -115 68 -108 75 3 3 -1 5 -9 5 -17 0 -116 62 -116 72 0 4 -6 8 -13 8 -20 0
-67 34 -61 45 3 5 0 8 -7 7 -23 -5 -60 12 -53 23 4 6 2 8 -4 4 -6 -3 -43 12
-84 35 -40 22 -65 38 -55 35 10 -3 15 -2 12 4 -3 5 -16 9 -28 8 -28 -1 -169
67 -159 77 4 5 2 5 -5 2 -14 -9 -155 50 -166 69 -4 8 -13 14 -20 14 -7 0 -6
-4 3 -10 24 -16 12 -12 -120 34 -86 30 -118 45 -105 49 11 4 7 5 -10 2 -34 -4
-180 36 -165 45 6 3 -13 6 -40 6 -37 0 -54 5 -66 20 -8 10 -13 13 -9 7 4 -9
-1 -13 -14 -13 -12 0 -21 4 -21 8 0 5 -15 9 -32 9 -18 0 -109 12 -203 26 -93
15 -236 30 -317 33 -94 5 -145 11 -141 17 4 6 1 7 -8 1 -15 -9 -109 -13 -109
-4 0 9 -59 10 -64 1z m1692 -2103 c-3 -13 -81 -264 -172 -558 -92 -294 -215
-688 -273 -875 -57 -187 -160 -518 -228 -735 -68 -217 -169 -543 -226 -725
-56 -181 -106 -338 -111 -347 -8 -16 -28 -18 -193 -18 -101 0 -186 4 -189 9
-3 5 69 244 160 532 161 507 280 886 663 2112 100 318 186 587 191 597 5 10
15 21 22 23 7 3 91 6 187 6 l173 1 -4 -22z m-2496 -75 c8 -10 104 -243 212
-518 109 -275 201 -506 206 -514 6 -11 12 -5 25 24 21 50 113 273 210 510 172
421 205 499 217 507 7 4 106 8 221 8 l207 0 10 -26 c6 -16 10 -435 10 -1126
l0 -1101 -91 -276 c-50 -152 -97 -286 -105 -298 -13 -21 -23 -23 -89 -23 -54
0 -78 4 -89 16 -14 14 -16 120 -16 1015 0 549 -4 999 -8 999 -5 0 -28 -48 -52
-107 -41 -102 -150 -369 -299 -728 -65 -157 -67 -160 -102 -169 -20 -5 -52 -6
-72 -2 -33 6 -37 11 -75 99 -22 50 -88 211 -147 357 -144 356 -190 467 -213
520 l-21 45 0 -1002 c-1 -989 -1 -1003 -21 -1023 -18 -18 -33 -20 -176 -20
-88 0 -164 4 -175 10 -19 11 -19 37 -19 1413 0 1078 3 1406 12 1415 9 9 71 12
218 12 185 0 209 -2 222 -17z m-795 -680 l1 -199 -35 -29 c-20 -16 -42 -28
-49 -28 -7 0 -11 -3 -9 -7 8 -12 -33 -42 -46 -34 -7 4 -10 3 -6 -3 4 -6 -24
-34 -61 -63 -37 -30 -75 -61 -85 -69 -16 -13 -20 -13 -29 -1 -8 13 -9 12 -5
-2 8 -24 -81 -97 -95 -77 -8 11 -9 10 -4 -3 6 -20 -40 -62 -57 -51 -5 3 -7 2
-4 -4 3 -5 -61 -63 -144 -128 -138 -109 -163 -138 -141 -159 4 -4 7 -13 7 -18
0 -6 6 -13 14 -16 9 -3 11 0 6 8 -4 7 6 2 23 -10 17 -13 28 -28 25 -33 -3 -6
-2 -7 3 -4 12 7 140 -91 137 -104 -2 -5 1 -8 6 -6 15 4 102 -64 95 -75 -4 -7
-2 -8 4 -4 7 4 12 2 12 -4 0 -6 4 -9 9 -5 9 5 26 -12 26 -27 0 -3 4 -10 9 -15
5 -5 6 -2 1 6 -10 18 10 6 61 -35 22 -18 68 -54 104 -82 36 -27 64 -55 62 -62
-1 -6 1 -9 6 -6 16 10 77 -44 77 -67 0 -12 5 -22 12 -22 6 0 15 -3 19 -7 14
-15 26 -8 14 7 -7 9 -20 13 -29 10 -13 -5 -13 -4 -4 6 10 10 19 7 43 -16 l30
-29 0 -192 c0 -179 -1 -192 -19 -197 -22 -5 -84 40 -75 55 4 7 2 8 -5 4 -7 -5
-39 14 -79 46 -75 61 -263 209 -394 312 -48 38 -85 73 -81 79 3 6 1 7 -4 4
-12 -8 -313 227 -313 243 0 6 -6 9 -12 7 -7 -1 -12 4 -10 11 1 8 -1 11 -6 8
-5 -3 -18 2 -28 10 -10 9 -13 12 -5 8 9 -5 12 -3 7 5 -4 6 -11 9 -15 7 -4 -3
-33 15 -64 40 l-57 44 0 131 c0 75 4 128 9 125 5 -4 7 2 5 11 -4 13 31 47 131
127 75 60 143 109 150 109 8 0 12 4 10 8 -3 4 25 31 62 61 93 73 115 88 126
81 6 -3 7 -1 3 5 -8 14 172 155 187 145 5 -3 7 -1 3 5 -8 13 181 165 195 156
5 -3 8 -1 7 5 -4 13 242 213 256 208 7 -2 12 -72 13 -204z m3441 195 c8 -8 8
-15 2 -24 -7 -8 -6 -13 4 -17 11 -4 13 -1 9 10 -4 11 -2 14 8 11 8 -3 13 -11
11 -17 -1 -7 2 -10 7 -7 11 7 156 -110 156 -127 1 -6 7 -11 14 -9 18 4 52 -28
44 -41 -3 -6 -1 -7 6 -3 14 9 83 -48 73 -60 -4 -4 -2 -4 4 -1 6 3 26 -7 45
-24 19 -17 29 -28 24 -25 -6 2 -11 -5 -12 -17 0 -12 1 -16 4 -9 6 15 33 16 33
1 0 -5 4 -8 9 -5 13 8 61 -33 62 -52 0 -12 2 -13 6 -4 4 10 11 8 29 -9 13 -12
21 -26 17 -32 -3 -6 -1 -7 5 -3 10 6 282 -198 282 -211 0 -3 -8 1 -17 8 -16
13 -17 12 -5 -3 8 -9 19 -15 26 -12 13 5 33 -13 36 -31 1 -5 7 -9 14 -7 14 2
33 -15 36 -33 1 -5 7 -9 13 -8 7 1 30 -14 52 -34 22 -19 33 -33 24 -30 -9 3
-16 -1 -16 -9 0 -17 9 -18 25 -2 10 10 20 4 50 -25 l37 -37 3 -129 c3 -121 2
-131 -18 -151 -11 -11 -26 -18 -32 -14 -6 4 -8 3 -5 -3 9 -14 -60 -66 -75 -57
-6 4 -8 3 -4 -4 3 -6 -13 -26 -36 -44 -24 -19 -76 -60 -115 -91 -40 -32 -75
-58 -77 -58 -3 0 -19 -13 -37 -29 -17 -17 -35 -27 -40 -24 -5 3 -8 1 -7 -4 4
-15 -191 -164 -204 -156 -6 4 -8 3 -5 -3 9 -14 -29 -47 -44 -37 -7 4 -10 3 -6
-3 9 -14 -29 -47 -44 -37 -7 4 -10 3 -6 -3 9 -14 -29 -47 -44 -37 -7 4 -10 3
-6 -3 8 -12 -210 -188 -233 -188 -8 0 -15 -5 -15 -12 0 -6 -20 -27 -45 -47
-67 -53 -70 -47 -70 175 0 158 3 190 16 203 8 9 20 13 26 10 6 -4 8 -2 4 4 -5
9 353 302 370 302 3 0 2 -6 -2 -12 -4 -8 -3 -10 2 -5 5 5 9 12 9 16 0 7 61 63
109 99 15 12 33 19 39 15 5 -3 7 -2 4 4 -8 13 161 145 175 137 6 -4 8 -3 5 3
-4 6 2 18 13 28 11 10 20 23 20 30 0 6 -31 35 -70 64 -38 29 -67 58 -63 64 3
5 2 7 -4 4 -12 -7 -55 21 -49 32 3 4 0 8 -7 8 -21 0 -277 205 -270 216 3 5 1
7 -4 4 -6 -4 -14 0 -17 8 -3 8 -10 14 -15 13 -9 -3 -119 79 -225 168 l-61 50
-3 180 c-1 98 0 189 3 202 6 24 24 29 43 10z"/>
</g>
</svg>
